#!OML:ASF F:\VICON\USERDATA\INSTALL\rory3\rory3.ASF
:FULLY-SPECIFIED
:DEGREES
46
root 0.49445342956821664 14.996406452827827 -18.456612140715226 24.41251158723136 -0.6506987038255679 -2.5317143818654753
lfemur -59.88446441370128 8.826789571424415 -21.24266008100947
ltibia 67.70694275380217
lfoot -24.16422477746341 16.604043593638387
ltoes -19.653925844355665
rfemur -59.243039680105085 -1.8712021818094062 23.751636331770708
rtibia 71.63938899812266
rfoot -28.89977619858141 -13.751870477673954
rtoes -1.93521677482343
lowerback 17.77355343126344 0.7417432090031544 -0.3687145735264058
upperback 5.890973302928751 1.026540699740185 2.6149821074245
thorax -7.219911972051847 0.5249572559188207 2.627678607170886
lowerneck -19.816748573212667 -0.08760726482619102 -1.9706972863618084
upperneck 2.183532725748517 0.2541377067106424 -0.46059433563307106
head 3.1968367652459175 0.10326507625225759 0.40008092971410103
lclavicle -1.7712909269508306e-15 2.1317930173352263e-16
lhumerus -40.23805247821133 8.204358512216226 79.6196501429757
lradius 15.325743205186473
lwrist 0.9692974966864334
lhand -23.406810735533504 -3.798574564184124
lfingers 7.125019999999999
lthumb 3.0501381181962777 26.143458921690954
rclavicle -1.7712909269508306e-15 2.1317930173352275e-16
rhumerus -35.37345067752915 -12.863178394949285 -72.81140336017025
rradius 25.059740449025487
rwrist 33.501693213703376
rhand -15.531906611544882 -25.498166699792648
rfingers 7.125019999999999
rthumb 10.651147164693148 -55.18228736561467
47
root 0.4598571378947583 14.906148978340937 -18.125669537306848 25.739921974813427 -0.46629204773361543 -2.4507975781259415
lfemur -61.3692638025913 8.32398656049137 -21.055014046619387
ltibia 69.5950005959295
lfoot -24.885271588458878 17.971310371046403
ltoes -20.88384372244478
rfemur -60.605580454052316 -1.6163440470772503 23.813937329270246
rtibia 73.5760767661739
rfoot -30.02885031445279 -15.711097600292216
rtoes -2.6146133422367592
lowerback 18.759927738184533 0.8284946105079062 -0.6539233086518254
upperback 4.579915525048753 1.1309211339687317 2.7550363302030787
thorax -9.05777607377953 0.6190667120592744 2.860498579228476
lowerneck -20.997187589919083 -0.1751067324334878 -2.046130811812538
upperneck 1.22431414744781 0.1823105980713994 -0.4398139861144301
head 3.0924972596977165 0.0697672741798569 0.4062967323100586
lclavicle -1.798941213139232e-15 1.6960355183736977e-16
lhumerus -37.92322743925042 12.687238529684505 78.40539231682722
lradius 13.506615735755734
lwrist -3.6870268241484476
lhand -23.24903407245912 -3.991791608352976
lfingers 7.125019999999999
lthumb 3.2025088995973574 25.95453400937703
rclavicle -1.7989412131392315e-15 1.6960355183736992e-16
rhumerus -34.28864221207649 -14.089606194469482 -72.7681951229994
rradius 24.500924384878775
rwrist 34.160965234363815
rhand -15.707195611261866 -25.50009824762296
rfingers 7.125019999999999
rthumb 10.482068770369962 -55.19075152697063
48
root 0.4365751401037885 14.86027801481377 -17.351217043290188 26.589453606854846 -0.2893454058318196 -2.3414948641205644
lfemur -60.9328752484696 8.069998688550735 -20.801058472613246
ltibia 69.82693782094381
lfoot -25.41854032676376 18.922213969346053
ltoes -22.39216617183417
rfemur -60.15187180168952 -1.3833947221982674 23.803885625921986
rtibia 73.87821226019139
rfoot -30.838344131796077 -16.969427662903957
rtoes -4.450099044333727
lowerback 19.16437294712291 0.9490129232553504 -0.9460013819155818
upperback 3.0431754957535095 1.266416562733392 2.868700696944331
thorax -10.68617860651425 0.7310061053062655 3.084401037971383
lowerneck -22.122174558089505 -0.29001849373012917 -2.144075977041718
upperneck 1.4109854281163088 0.06894769866385492 -0.2756921542489079
head 3.363958864370735 0.027542513607851225 0.4519554896966926
lclavicle -1.7407908356218895e-15 2.486547718103558e-16
lhumerus -34.27910657004574 15.425450404649782 77.66562693342254
lradius 12.813286842390298
lwrist -5.938277347074513
lhand -23.507845703588433 -4.482331621692006
lfingers 7.125019999999999
lthumb 2.952607551117279 25.470000636894845
rclavicle -1.7407908356218897e-15 2.4865477181035584e-16
rhumerus -32.116695789266224 -14.079403354967353 -73.00601573715524
rradius 24.80614947623062
rwrist 34.75161436257264
rhand -16.10574234271956 -25.553797485320935
rfingers 7.125019999999999
rthumb 10.097627781690612 -55.26263479996987
49
root 0.39504311578483675 14.922190422820579 -16.729233781123476 27.092920181699704 -0.06558799821741979 -2.2056262844300174
lfemur -59.09378414798401 8.123496524494582 -20.438424701322937
ltibia 70.04230773649498
lfoot -25.233316544223634 19.249292839338956
ltoes -24.6373310130083
rfemur -58.050997189064816 -1.4534876200867148 23.680074272742537
rtibia 73.76491489685209
rfoot -30.832964199227682 -18.14394191200944
rtoes -6.37475053623272
lowerback 18.984021346455577 0.9960183303149932 -1.3304768717019382
upperback 1.7165978892679616 1.280744228391001 2.9500286894550554
thorax -11.733330012670868 0.7870348705125829 3.3336100109548434
lowerneck -22.66199127553989 -0.3454960002792349 -2.289142754561411
upperneck 1.9493219183783026 0.055326464970520205 -0.13375604152708065
head 3.638441031149582 0.013166195246266492 0.502955523868176
lclavicle -1.6423358931167134e-15 3.824687188712715e-16
lhumerus -29.58168679157779 17.195629909024632 77.47314308628162
lradius 12.956273136575724
lwrist -6.140351433903139
lhand -23.810920159277792 -5.0521655161907155
lfingers 7.125019999999999
lthumb 2.659890424352248 24.901714733021436
rclavicle -1.6423358931167134e-15 3.8246871887127145e-16
rhumerus -29.517501877672803 -12.931410536448146 -73.68780917937552
rradius 26.386077110426108
rwrist 34.631496707576126
rhand -16.51941886964911 -25.66274226470247
rfingers 7.125019999999999
rthumb 9.698559264135417 -55.389421825858925
50
root 0.37223188156235093 15.27853135089509 -15.296962150954535 26.47320147874626 0.1667775795047961 -1.908909278506348
lfemur -54.72920284930132 8.223181848686423 -19.917286973414402
ltibia 67.17663326332797
lfoot -23.420410786244766 18.11019293021982
ltoes -27.116713409012426
rfemur -53.22511476670623 -2.246009796217156 23.281281542872208
rtibia 70.23490613652055
rfoot -29.202028072020227 -18.09625757241147
rtoes -8.540690123416844
lowerback 17.80534479640557 0.9262789034302774 -1.6922061356858722
upperback 0.560115203942255 1.138704821829173 2.9412865622972753
thorax -11.974343770582157 0.7401249028231691 3.5182546426142247
lowerneck -22.51067770123695 -0.4011413609726262 -2.42213545641084
upperneck 3.2145505718166802 0.011737024373873105 0.08209649387817075
head 4.02288656269534 -0.01697243184650487 0.5657041962684841
lclavicle -1.5457243086372631e-15 5.042676963393936e-16
lhumerus -24.036918934559417 15.866662966047153 78.02225731332595
lradius 14.687376882042836
lwrist -4.050102016476726
lhand -24.332348476333994 -5.77527511965924
lfingers 7.125019999999999
lthumb 2.1563675226228605 24.185889627478918
rclavicle -1.5457243086372631e-15 5.042676963393939e-16
rhumerus -25.9939263852007 -10.957264167787025 -74.83492425801585
rradius 28.905785447191835
rwrist 34.24773579812977
rhand -16.920157327135758 -25.70856418224848
rfingers 7.125019999999999
rthumb 9.31199503129119 -55.453105033148674
51
root 0.3530881586251725 15.824174950142709 -13.885595989927342 24.953854368123878 0.37127944874709706 -1.5613181889555048
lfemur -48.745560591077066 8.476737908976885 -19.29659825516165
ltibia 62.524667250243425
lfoot -19.20892659627331 15.680706703737748
ltoes -28.76610255058911
rfemur -46.76614917160039 -3.2807611864498627 22.55371074273872
rtibia 64.85329159498261
rfoot -25.030344877640147 -17.011158284948422
rtoes -10.087086974910765
lowerback 15.602428665600431 0.7954721265324306 -2.0525650639586512
upperback -0.10082880732280053 0.9241043292807434 2.7977984558977376
thorax -11.088035701598978 0.6358325372533317 3.5805855519209966
lowerneck -21.314180130957766 -0.4734497987532884 -2.6013328004908733
upperneck 5.331521753481727 -0.08926385500072753 0.3957369910155242
head 4.491794375450453 -0.060695312693433943 0.6561289944414135
lclavicle -1.5096717778539232e-15 5.58192233624669e-16
lhumerus -19.202060443822724 11.842164604102836 78.67424394466232
lradius 17.593435160517316
lwrist 1.135731659305347
lhand -24.97228019232109 -6.7148230068422095
lfingers 7.125019999999999
lthumb 1.5383829345779814 23.250637947196427
rclavicle -1.5096717778539234e-15 5.581922336246688e-16
rhumerus -23.093722235547432 -7.540038476495361 -75.97453037281298
rradius 32.249910953035126
rwrist 33.4513537805645
rhand -17.22141647366871 -25.627480110785744
rfingers 7.125019999999999
rthumb 9.02137227071582 -55.38342534518143
52
root 0.33406394477870816 16.59870267937266 -12.73758123110291 22.754432852740607 0.6097410200559684 -1.2162980440440476
lfemur -42.389966328527734 8.454220277810135 -18.56729828016472
ltibia 56.868545924027146
lfoot -12.725458501106662 11.992797872739878
ltoes -28.392118929511142
rfemur -39.779607168997856 -4.61725266056284 21.522103694551692
rtibia 58.35047280099315
rfoot -18.496961369019587 -15.624745352493449
rtoes -8.639452415344916
lowerback 12.445689612626243 0.5299635220952982 -2.3874567409481293
upperback -0.2909846287390674 0.5501353396569426 2.573329044209798
thorax -9.21529517558133 0.42381412112314415 3.524711166421115
lowerneck -19.115391609114063 -0.5133228373013171 -2.781266176637616
upperneck 7.001443563759448 -0.18285168158951934 0.6421308612857285
head 4.605904867091385 -0.10790114398246342 0.7321454076528048
lclavicle -1.7249977412106477e-15 2.714435834708783e-16
lhumerus -16.163953533708142 6.523678717605886 79.48240705285681
lradius 21.111834388780533
lwrist 6.771203798395842
lhand -25.383201669772543 -7.515141750949851
lfingers 7.125019999999999
lthumb 1.1415296250941087 22.45264105666889
rclavicle -1.7249977412106477e-15 2.7144358347087816e-16
rhumerus -21.177371941440725 -4.179706802098583 -77.40404136654612
rradius 35.70154365824046
rwrist 32.23283446922921
rhand -17.336479371413873 -25.468724724208894
rfingers 7.125019999999999
rthumb 8.910339623966333 -55.221349405929
